<mxfile host="65bd71144e">
    <diagram id="XDuwWR8ml3EK4h_-ioKo" name="第 1 页">
        <mxGraphModel dx="1009" dy="619" grid="1" gridSize="10" guides="1" tooltips="1" connect="1" arrows="1" fold="1" page="1" pageScale="1" pageWidth="850" pageHeight="1100" math="0" shadow="0">
            <root>
                <mxCell id="0"/>
                <mxCell id="1" parent="0"/>
                <mxCell id="2" value="" style="shape=image;verticalLabelPosition=bottom;labelBackgroundColor=default;verticalAlign=top;aspect=fixed;imageAspect=0;image=data:image/png,iVBORw0KGgoAAAANSUhEUgAAAvUAAAD7CAYAAADq12vUAAAgAElEQVR4nO3dYWwb6Zkn+L8yjq/3JsEgMKrU4wYakNGYDFSCKAsBkjmrETHNMs7BxvDOYmdjEooaTvpuPqza5cZ9OIhZW26EwgJ7sMvtxQGLdPqsGEUlWWBHcILphYvdVNAyMAFyMimohOmg197tQ6stFoRgJslOo8cT3YeqIquKRVaRLEos6f8DGm1RFPmyWPXUU+/7vG8N7e3t7YGIiIiIiBLrMwfdACIiIiIi6g2TeiIiIiKihGNST0RERESUcEzqiYiIiIgSjkk9EREREVHCHTvoBhB16p+e/iOefvopuHATMDQ0hGPHj+MPjn32oJtCREREB4g99ZQ4TOgb9vb28PTTTw+6GURERHTAmNRT4jCh9+L2ICIiIib1REREREQJ12VSv4uVuTms7AT8qnIDk3Mr2O2pWf2wgZuTzW3euHUak7c2or9M5UZnz/e916v3DmjLxPK97GJl7jRuVpyfN3Bz0v1zxHZMnsZkp39HXdm41eI43U+VG5icvIGgo6bj468rHeynOyt4tUVbiYiIBlnEibIbuDn5fYy8fRsXhgHgBF6UAfl7K3jx9gWcCP3bWdztqnlTuFp/z12szGXw+oMIf3bmGvTQdnVhZwWvXrqLmbdei9SeqYUS3jjfuhUbt07j5aUIf7+zglfPXcdaR411b7sAIa8589ZDXJnw/817ePfBDL5z2/65UsLdM9eg+5/n4d9OM7iz/hDj0T4E9WQXz42M4OVzN3Bq/TWMRz2G3MdPN/ve7BLWLze+4Y2f38XUQingO9/AO0tTuPp2671h994c5IVO3j1gv995hMeYwXdwA5OTAZHI114iIqIk6nr1mxPnF3BVz+CHlQvNyZ/HOK6sP8SVpsetZP9xSOLrF5Yoo3IDkz+I/HId2MDNc9cxUk92T+DC7Ye40OOrtvo8G7dO403PIzO4s/5axGTYuggLF/SaVuL3OODZu794B2uzr+AN53k/uAs8AOTJ663f4a2HuOJsp8oNTF7yPaFyA5OXgi/5Qr/rfjJXoao6as7PggxFmYYIA1q+CMN5fCyLxYvSwbQx1AmcOP8a7jw+jZdvZbB++TkALS7YHIHHT3OivHtvDvLjV5qS4Y1bp/Gy+7Xq320Gkwv2P50kulLCXawB507jdc+rNPbLE+dvY/18Rx+6SX2/nRjH+vprLdtORESUZD0saXkCF749g8lLN/BS5GSzd2sLruSglTPXGv/29zSeO43XMYOrC4/xer0HcBaTnh5zX7Jrv8ZIu2SoJf9Ihd3+M9dw9YVOX6sLvs8vT163kuUvA8BdvBzUcwlg5tv+RzbwwwU0elUrS3j9hSWs3x63LkBGekjAA0ZWmi9q2jOW89A2vY+JGQVKWuiiQQY0VQcyChab/l5CrlBovGcXr96JWlmFWp2wLyi6M/7Na5g6V8LG5dmm3/U9wfV9t9b7AdZF4WNcffuht1c96MKvJ7t4T1/DzLdvt/gZ8IxExvnWRERE+6i3deonZnH1zAIe7QDjrco8YtZxT/3wBbyxfgHNJUTAhfNOz6Jr+L0pqdjFyvfewdfqyccGbk6WOriQcUYqrB7wd+VG+zduXce70T62JVIpxAzurGcaPzqfv3IDkz845UqwnO0SUaWEuwCuAqgnZN+NsAUC2ly/kDhzDXrTxUMP3L3mW0XMayq04QJyox2+zlYVBiTkurogGEDDF/DGOgDs4pH9kLf0a826qI37+2hj994CXn/hFaz3O27svId3HwAj9c/1ER4/AO4+OG1faPuOl0D2hTnLdIiIaID1ePOpE7hw+7bnkd0PHwMvZKLXs+sLmFxYa18S4NJxT30EUyPPtfmt+zPuYmXOOrk3lxOFsZIJyN5H232eKf/jw1ET8Q280+7XTSUvM7izPotHvnrrxgWUXWqDKQAdJmSuNluJpG8UpHIjwot0YTQFCQbMHRMYPSTJeUfcI0TNZVbjlx9i/XJAT33g97GG15tKZKzHJ4PmhDQPCPg8wns6MPPC93Gzcrv5uD9zCs/1NBcH9RKfjR9ZF5QjzuOVUiM531nBq+cetXkRIiKi5DjwO8quvfAK1r89gslLpyP1hMVVU2/10F/D1Q/gOuO3t3tvAa/jGvTL46GTXB3Oxcruve/jLoApfQGTriQqek19zOplEdbIg6VRO717bw71SvnKEl7HlJPS4z19BHdue7+nwIsTz/e5gXcibK+41Mo6DAiQx7wJvb9MR8o5PfkmyqoK3Wz8TsvnA54X9f1VqKXGiwWXAvnq813v422nDjWvd9gWe4QoKHH9cAWvXnKPnjSS85nZmYDX6rKmvqVTuHD7gp1Uz2ElcEJ3q7k4NntEre08k50VvOnb5zZ+fhczX33N+uHjR1g7cwrhXQAhbSEiIhoAMSf1Vr3qlBzWld4wNfIcMPEa1tczuDk5i0l/T25dxImpE69h/XarX9o9jmdmcOe7JVz9ntUzPfPt8HEFZxWOqYUFnABwwu7p9LJ6F9E06rCL93Rg6gyw9sJLuPrBLCZvLeFO6LsGtqT1Ciahq/48wg/nTgMvBCVurWzg5qXHuPr2K3h87vuwvofXmp4VdrHlXNQAj/Hm3A1853Yf5mFsFjFfz8Ml5ApZuKewGst5aDsylIJdn26uQlXz0HIF5EYFpJUC0oBduoOmv4/KSuhF5AqK/fcGtLwKFa7E3pmI22KirXSxgEXEU1Pf5Pk2Iz6VG7j7QVxvBODB9eaJ1LOvWP8fvoA33nqEyfrqPPZIH041vYx1kbnQch/buHUa73zVe9xt/Og6sHANMwv2+++s4M2lGXzHPm43fn4XeGEp/lWyiIiIDkDMSf1HePxgCl/7bjenSas37Fv35iBPnnaV4/QyDD+DO2+fwpv1mm5vj+P4d6/h3XPXcTdklMDqlZ/C1JmuGmFPKn0Fd7AGjLyIC5dLwNwS3ulhomxTuVK7EQp7KU5gCiNvP8SFj2/g7pI72ZrBSwD8ZRZTC7CWA5x9BVeGgZtdt9aenDg7g7tLd7H2YA1rk4+t76Lr1wzgJMh2Uu5hrkLfFCC7k2NhGvKYDq1qAKNxrWBjQC+ZkHKK64JAgpwRoFYN1NLW+xslHTVBhnJAK+cELRU5tVDCG88HPXsEp7qtfW85UdY2MYurZzL26jwtLvN2VnB9Afja263iyi6eG5nBXc+k/V08+mAG37l8Cu/YfQxWku8srWmNHM28NQ5wVXoiIjoEekjqN3DzFnDFdSLevfd93D3zEvQeJr+dOH8b68/fwOSlOXtSq3vo2z/Z1V5+8dvt6/HdE2Xddn/xDtbOXIN++0W8N5fB5K0lrH/V98d2755Tc97RxFanzZceW6vG/Kj+KXHh9mvYuHUXL3dSU9+NnRW8+j3g2lszkH9wCi8OAxh+Devr7t72DdycXMDI2w8D6uQv4I3L1nO6Vlmyypa++gh37ZGY5+7NWfc56MfEzFEZsqBCL5uQPCUvJnQ1D93//LH4m2Boecz7H/RX3wwL8fW+h9rAzbmS9yFXwt2y3OvjR1jDXawFrpLUbU292wlc+O41vHuuhI3L43gOAF445eo938XK96xkvOU9F9xLd845k8GdESVnfskG3vngGq5d/gg3JzONuQYdr2ZFREQ0mLpK6q1evhHccSeGOyu4vrAGYA3X773Y2/riE69hfT3ofYMvGu5eOh3Qkx+2rvsGflgvp3GV9uw8whQeAe7VatYvwL1ySEdcPd1BaXHfa+qHL+CN23BNgGxTvtM0GTLkBlYugTX1Z65Bv30KP7x0FzNvPcQJNCZh1tcf78tEWQHpsxL0+42ecedxWVGwH4vadFqD3zf1pBz2qJV987AP0VQaE3QRufvh48Cyrt5q6n3qq/Og6Y7H9XksEeLJ+OUlzEzOtog/47hizwO5sl7CyFwG78qzvAkaEREdGh0m9a6l3dbHvY+fs3rT1p9fwuSlDG4+382a7u1YJRx4ALy3c8GTaEZdOcdt49Ys7mIGd1omC9ZqNSMR6u3bGnZ6uuMVeCETadUf/9wEd5IfPYn3a1lTv7OCx7NLeGMCQKXz1+3aaAqSVkSxLFl17IKElKBD11YhxVmf3kTCxBigaUUYbWrypZQEaEWo5fZr6YvDImBWYJjTELu4GNn98HF9wvLuvbn6zcN2geA5GJ7vyD7mXnhl3+rOP3q8BsCuubfLbq6+HfXu0OO48tYMJi8tYOXLbfbjyhJefzCDO7ejfiouaUlERIMvWlK/8wiPsYa754Cr/hINZx3y2SWsnz8B4DXoC48h18tn4mlovcfurUeQz53G67NL9Ttkdv5ac3h5aQpX3w7oyR8+hRG8g0cV+9byAzo8382FTJOdFbx67h187e0lzJz7PkbefgWPW65G0qUoFzVBkynRa/mRXcde0lAeU5AWBKQVBVBVz0oyQIe96ltFzGvu9WqcybmNibnSxQJyy3nP6jmAbwWc0SwWlVWoqop5V1VMU1tGs8iN5aG5yoY6ae+J87exDrgS5PHG42F3aq0s4fUHU9HuR+DiWSK23UTZJlad+9SC9fdODXzQvmhNqA1YtmriNdyZPY03f7GLCy0uMl+1R44an2ocV5zZ9TutPxcREdEgi5TUN2rPm+/6+fKSlWC+4UowT5y/bdW3ula16EWj3Md6//X1WazMZTA5aT/hQVD5DWD1PL+Cx+fsibZnrkEftspuZt562CJxHce3FgD50nVgdglvdNLQnUd4jCl87Y+j/0lH69QDcHraw9vRbqVOu3ce16Cv37aWtQRgJTcLWJk7jckX9rFXMoY7yjqrxbiJaQWLafcjrhVu2hnNYrHQxe9C2tNEmIZSmI7ntdoKqUv337dg1loRZuPndzHVtpbd4l3edQpX3RNa206UDZgEf6ZRajN++aHn+PMvIzu1sBAYW/x/53qF+ohiywvijx9hDcB3vK/IJS2JiGjgRUrqm3v1WpXhNIxfXsLMByWr56uXXt+dFVy36/cb7xRxeUuH74R8Zb19UhypF9PWtIrImWu41sHnja2mPiAxe2PY+/jUQgknKjcweelx84hLnb1tKzcwOTkbz4iAI2iuRIslSFsnZtS5kONlwj9x2tLuO6iPAKBxI6vA1/V9t+6/6zRZbvk+EW3csmNW0/Hmu7iYXWKtPRERJc7Q3t7e3kE3gqgTn/zutwfdhIHzzB9+7qCbQERERAfoMwfdACIiIiIi6g2TekqcoaGhg27CQOH2ICIiIib1lDjHjh9nImsbGhrCsePHD7oZREREdMBYU09ERERElHDsqSciIiIiSjgm9URERERECceknoiIiIgo4ZjUExERERElHJN6IiIiIqKEY1JPRERERJRwTOqJiIiIiBKOST0RERERUcIxqSciIiIiSjgm9URERERECceknoiIiIgo4ZjUExERERElHJN6IiIiIqKEY1JPRERERJRwTOqJiIiIiBKOST0RERERUcIxqSciIiIiSjgm9URERERECceknoiIiIgo4ZjUExERERElHJN6IiIiIqKEY1JPRERERJRwTOqJiIiIiBKOST0RERERUcIxqSciIiIiSjgm9URERERECceknoiIiIgo4ZjUExERERElHJN6IiIiIqKEY1JPRERERJRwTOqJiIiIiBKOST0RERERUcIxqSciIiIiSjgm9URERERECXfsoBtARNH909N/xNNPP8Xe3t5BN+VADA0N4djx4/iDY5896KYQERENFPbUEyXIUU7oAWBvbw9PP/30oJtBREQ0cJjUEyXIUU7oHdwGREREzZjUExERERElHGvqiehwqNzA5CXgzvprGK/cwOSlu6F/MrVQwhvnTwA7K3j13HWsRX6zKVx9+zYuDPfSYCIiovj00FO/i5W505icvIENz8+t/nOe53qFe3OYnDyNmxXv31s/ExFFtYuVH9wFcBcvz61g1350aqGE9fWHWH9rxvOzvjDV4nVmcGf9ofU360uw/wpX33YeK+Hqmb5/GCKifbCBm5OnMemKmW2ffcvO525tBD/u/q/Nazq5X9j7Ws9rzh0BWJ04HbT9qOhDT/2M1VNW/3kXK3MZvP7A/7wN/HBhDcAURv4YwM57ePeB9fcvTcTfKqLDqlZWoZbMxgPHv4Dnv/wN5M5+EZ/v8LL9k/++ih//pzLe//VT64GxLBYvSsBWEfOa0Xii8/jAOIELt0vAXAbvvgB89KHz+Hu4OXkdTp/92kIGkwszuLpwQM0kIkqo8a/OAEt3gQ8eYRfjOOH5rT16+XH4KOmJL7+EKaxh7cF1/LByAVcCc75dfPT8S5jBdbw8+ZgjoxF1mdRv4ObkrH2ivIuXJ+9i5q0SRlw/h6qUrL8/8xJeHAZ2771jD323/vuZtx62+PKJqO7TX+PD934I7Y/+T/zln32+g7+r4sdv6nj/9/1rWpjf/O1fYWmlAuH8dfzr0U7/+gQu3H6ICwBQuWE/9iKurD/EFbscxym32b03F2u7iYgG2e69OcgLLQoMH1yHPHnd96BTYujO95qfP7VQwndcv9r4ufXMmW9fwIkIZY13L51GU8Z35hr02xcwPnEB4+ungMlZvP6jFeCD680dxL6210sqj6guk/pxXFkvYWQug9cfuHrmnRNqqA3ctK/kpuQXcQIbuLmwBswu4Q5m8fISvxiiTkm5AnKjT/Gb//cnuPmfDXz43z4E/qyD3vRf11D7PYA//Rd4PfclHHP38o9msVgAYK5CVXXUYm674x8+/u/Y/s1TfKHDv3OfsGbeeogrzi8eL+HVybv1k4rVUw9MnWlVfhPUqbCG18+dxusdtomIaNB4cisn6baTaOtRf3XFOK68fQ2Pz10HmuYgzeA7508At5znbuCdJQBnruFbEwBwAW+sO1lh43U766AdtzpmYL1ePcd05k152k6xld80XQXOLkEf+X7TY+uXx7F77/ueK7ONW7O4ixncuTzu2jmIqBtP/8dv8AmAZ/7ZP2s8+MmHKP/4Jyh/8Gs8/T1wbFjC1//VX+Arf3ysubTmb/8KV//tXwEQICsK0kK09/WU7nzmGMTRc/iLf/UVnKxHmafY/sVP8J9L72P7f9jlPYIMRZkGfCVEhpbHvPWESG04cf42dAT0RI3M4o3115qev3tvDnJTSSDgLR90eqjck2JblRMSESXMx4+sDo8XTrVNinc/fgTA6hS5+fxDvPRzq/d9amEW40Cj5v0XVgWG1VnbKyv+PmYHb0diXtJyBneaJpL5HttZwXXPifc9vLMEzLzlrsO3e9Rcky5evcepEETtGFoe8/lr+Pf/5UPg8yn8y//1lP0bE+U3/yP0X1kJPQA83TFw7/8uohrXfZzMVbz5pt6oxf/9U9Q2f4r/sFyF/Qhq5f+I/3DPaCT0++Kj5gn8cyv4aB9bQEQ0iJxSGSyVgiejAkDlBuRLjdHOu5dO4+Ul699rCxlMzq3gkf27x48fW48/jiHCVgDMWu/B/C+6GHrq7+LlSUSfeDZ8CiOYwsgscHdpDU7Nqx/Lb4i6dOwkvv7tv4D0jP3zB2t472PgmT/5BuZyX8EXPvMbVJdV/HjrfWx+AKSc0hqnx76LSbD/9cF72P79M/jiP/83yP3ZF3DsN1Vo6k9g/K2B95GC9HsD+rvbwGdOYmr2Wzj7wue9wSetYDHdmPRrlRLFtD2A+ijhxq3TePmDGF+XiCiR7FIZAPWyw9klrF9+zvu0idewHjDa6XmlW1ZN+8g3b+MOTuPlpVm8OuLP4T7CY3uEM7COHoBnqeCJcVyZeIhvjcxBXljAypc5UTaKWMpvphZm8SIW4KlHfcH5rf+x5/DSWwt47sOFFl8qEXVDyhVw/mkRN39s4K//+pf40uyX8AwAfPoP+AQAfvVT/PtrP+3Le3/yD58AAN7/2f+Fqz8LeMKuCfP3AP50qjmhj9ndS6fxuGXNfOhfs6aeiA49q+zZ7kB9fsmqT1+axeRS0HMbvfNeVhJ+yvXI+DevYWrpOtb097B73lXrvvMIj11/40nQ20yoPXH+NtbP28tbBk30bZrk61+B8Wjp7tzqubGLNVHiBKwNb7FqoWTM4M767aaNOz4B7H4IIorZ58e/ga+tGfjrX63i3Y+/hK//MYDPWIf5M3/yDfzlxa9APB7/+x47BgDP4Iv//C+R+7LgnWQLAH/0OXwBQO1Xa7j/wanQxP6Tv/sNgA5W7nE7cw1fe+E61h4AI8/bvU7uk1XQOvNObaln0hVr6ono8Kkn6bNLdm/6a1hfz+Dm5Pcx8vYC8L2gGOdNxlsm+sOnMAJg7cEjfAQ0knonxmIEpzrocd+9NwdZfwn6bSfHdMVgewSWGrpL6idew/r6rOvkFrDkEYDmXq/oV1DOKhV1nOFMFMHn8ZX/5Yv46//0Pn65auDsRQnH/uRL+NL/XMUvf/VTqNfdPfUScoUsohTaNK2Fv1nEfB71ia5fPP0lPFP5Jd7/mertqXdKeY5P4CsTb+P9yjbW/p9/5+qR8bbhs5/5LADgv/7s32H+Z0Ank3U/erxmB3ng5iRQvwcG0BT8d++94/nbem1pyIQxIqIkW1vIWPG3KSEex5X12wB2sRL7uzo3B2xMrg3mT/h38Z6+BjxYw/V7L9rLES/YeecUrn5zHPUk/wUm+EBsq980lhwKunrrZn151tQTdefY+JfxpZ++j19uruJv/k7C1B+dwp+/+i08s/xT/M3/15gsG6sX/gWuzDwD7Wd/gw9/HTQR9hi++C//Df71//QT3H/4IX7dYoLuF778Dcj/rbFKTyfGLz/EOqyencY9ME7gRJuldkeePwF3benUyHMtnulo1IUSESVNP3Orxz+aw+SSs7RwowO3kYjbS2BGVVmy/u7MNVw7f8KatGuX4EwtLODCsOu1H8xiEkzsYyxtdXrrZ3BnPYN3nH+/fQpvnjuNSQ6TEPWFaE8yrfvMF/Hn/7aAP3c/6fNfxNf/ty/i6+1eyJkwG+U9Anz+T8/hL//0XOsnfOYLSJ3/35E63/opeOZ5pGf/D4S8VXtfXoC+sIDraF5Wzdvp4Ny9ehxX1peAyRJeanXC+dhX8zn7CidtEdEREj63aOSbt7F+2ftYY7nz1pUau7+wbz565hQa3SqN3v2Zb18A3DX1TpKPDfzQXWe/xMS+9zvKzmYw7tTY1xP3DdQHt4etmw9s3DqNycmACRJERDE6MXwCOH8bbwT8bvzyw6aTjv0bXFlvmv3juukJcGE92q31iIiSxl9l4fSEux6JVlPv5vSsN5VPB5VsT+Hqd70l1qdemAIejOClCeDExCuYWViz/qY+OXYGd5wYvbOCV8+9g6+NWOvmH9W0fmhvb2/voBtBRNF88rvfHnQTBsIzf/i5g24CERHRQIn55lNERERERLTfmNQTJcjQ0NBBN+HAcRsQERE1Y1JPlCDHjh8/0knt0NAQjh3vw0L7RERECceaeiIiIiKihGNPPRERERFRwjGpJyIiIiJKuEjr1Nc+/qjf7SAiIiIioi6xp56IiIiIKOGY1BMRERERJRxXvyEiIiIiSjj21BMRERERJRyTeiIiIiKihGNST0RERESUcJGWtAzyT0//EU8//RQsye+Oc7v7Pzj22YNuCiUIjzs6ShgniXp31M8bRymOdN1Tf5R3kDjs7e3h6aefHnQzKGF43NFRwjhJ1Lujft44SnGk66T+KO8gceE2pE5xn6Gjhvs8UW94DB2dbcCaeiIiIiKihGNST0RERESUcF1PlD0w5ipUVUfN/lHMKFDSwoE2qclWEfOaUf9RyhWQGz3A9hBRX9TKKorIDV4MSgQDWr6KiUIW0kE3hegoCs2nDGj5IurZzFgWixf3+WgNzacGoI0DZB+TemvDI2KCWyurUEuArChoPl8KLR4fEKNZLBaA+mcm6idf0AN6udhtESB9wZ8Xqk6MEpErdLKd44yDSSdBzuhQ1VUoyjTEg24O0ZEUnk+1jfe+80/sHa2h+ZSEXKEAADCW89Die+dESl5PPREFkJBzejzNVaiqCm2408TbRFktwgjq6RCmoRSm0e8L1VpZhVqdONAkL1IbzFUUS4CssJe5F2I6B7mqQl0WjnTvGlESNTodCvWLglq5iLKZjd4JYa5CVStIHcqOi/03sEm9mFawmD7oVhAlkCAhJeio7pjAaCdRsoZtE5DOMrkKY5R01MY6OHF16fDHQQHpnIyqqqNsSjypEyWFuYpiyYSUK3iOWzGd5ajbAYo3qfeXAQTWNnmH9xvDOibKqgrddD+3wzKbrSLm75+EcnYbar0drh5MWMMz+rMKstCglqw38w4X+dvhbUOtrEJ9IkN5Vq//PQSZw8c0OLZ06KYAecx94Pj2637ss1Hmu/hjhN0OlNXG8QQdal53ntB5DPCVInlfo/V2qEVug4HKpgBZaXHxc9BxMJQBLa/jpCJjWw1qQyPOLaaqjc/i+xze7eX7viPE4sbHsy9CN02kmdUTJUJts4KaICMbMhpsLOehbTo/+UeUG+cLXc3DibgDOVcyIeJL6reKmNdqrmEY6+Q0v+w9ERiaDlkpICfYJwWtCKOQhQQBaaWAeqeUPSTTMVOHel+GUshCtNugLRvek1FJhSrIUArTEM1VqKqG8piCtGCfUIezWHRO2FtFzKsq4D6pbhahIovFggTn5FwsS9wJ6QAZ0PJ5+9/+JLB5vzaW87B262mI/iRUy2M+8HXasAO0kCtAGXXao0KFL9HzxAgXu0e6p/IbcxWqZjSS06Zh3ZDtELUNW1UYEDERtF0GJQ6GMqGrrdpg2yxiftOqV5XsOKdtWdu2MZ9AsZ8f8H1HiMUWAVJKgP6kBoAxlCgJzCdm6HOM5Ty0HTvXgh038kUrsXdKOll+E6vYlrQ0qgYwJru+FAHpsxKwWYW730zKNb44MS1DQg218H2jAxJy9ZOx3YYds341aD3s6qUUBAgwsW0CMA1UTQFyxnXSGZUhCyaqm6b37+snJglyRkDtiecdiPaZlXwtKnJzImoaqF4EwbEAACAASURBVJoScq5kSsrIEM0KDBP2RKQCFu2ETsoV7J+jB9naZgW1sayrht8+LqqGfeyZKN83IGZy/Qvc5jZqggzZaYMgISXYxzYQvh0iqu3UAOFkYPo5OHEwXHgb3D3rIk4KgLljAjBhVE2IGdnV6+7/vu2/D4vFbu1+R0QDzOpUms/nMZ9XUTatxyqbAuRco3PEijMGKlsH2NRDLqaeehO1HUBM+dIJ4SREVFAzAanlidw+6fbzCs3chgk0kp1hwZX4NGZOY2sbNYgQPW0RIA7DTtrbNNI+IbEEhw6UMA15TIfuLmUwt1Hz9OTXnxzb25pPTKtnt+VbWPX6wnAfD3ThJERTh741bV1cOGVI9cq6fm+HAY+DoXxt8Fy4uEcQjMDvUhwWm2Nt01uE/J6IEkF4VgB2nJ+cPMoq7QMAmCZMmDBcZTWNZ1O/xJTUt0h8zaAk2cU0YUJAqo8nMqtXbSLauTLw5NviRO1iPjF9FwpEB0fKyNBVHUba7mUVTkIEIPdxPXDhWQGA3GYFE6unt/PJu50z6uVD8E7iimk7tE5eBzcOhuqoDcHfZVisDY3FjKFEiWHFwQoMczo4tgkCBAgsq9lnsZXfSCkJ2NTtYRcAMKBphm+I1sso6agJE216r3plQC+ZEFNStJOFPVyvlxoD5bWyBt2UILfaK81V6Jv25ycaBIKElGBAdw5G+2dt2T+BND7i2ATEzSK0lsOqVt10raS5YkTA69RPFK2fYyxbw7yq74WcEiCrdMj6z7OkZ8TtENqG0VTLIeT9jIPOdmi9zTt4rY7a4HyXeqOkyFkJ42yruRDtYrFdzvMsU3qixBjNIjdmQndNtveSMDFmQtdW25fV2SXQnhJn6lp8E2VHs1AyKtSWM5it3h3d1YuGMdeE1Nh4h9el+sS9KASklSy28+4ygoAVG0z/yhgBE/+IDoxVv6xrzgRwAWlFAVTVWx7TwQo4/pVOnMm09WNcmIb1Fq7jG94YIKYVKPDGiKY2jGaRG8tDqz8n+mRdMS1DyjeXADXaEHE7hLZBwsQYoFUNYNQXv/YxDloXEAaM+6uojXY+sdjooQ1iWkHuSb4p1jbf6TFCLLbnMqXGGESJkkS6WEBuOe8raRRw0vf7Rr4ENOdUEnI5CfOaivmS9QhXv+ne0N7e3l43f/jJ734bd1u8Ws2IbjdTequIeQ3By6bFpLPVOcLvHvnMH34u5hbSYdb34y7BrLsJ+paPrK9GE/MQsGu1n77eWbftyhD2spgd3xa9s7vadiVyLLZWxamm2p/EGSeJutfyvBG68sw+xIrIwtsSeA5wOQpxJLbym94ZKLuG0/tfmkNEh4c198WvtmNNX29Zz94tYRrZjABDazX03K3ocbBWtspfklz6Vytr0CEjy145IqKeDdAdZSVIUDGfj3JDJ7N+o4KBHKbxrfud3FMuUVIElc4BLW94FAOnnKhYNiHFFoOixEHnxlVJL/0zoJdE5Aq8cR/RwQnPp+qleh2PCsYgNJ/y3sgPY/vTrEE1uOU3R8RRGA6i+PC4o6OIcZKoezxvWI5CHOm6/GZoaCjOdhxJ3IbUKe4zdNRwnyfqDY+ho7MNuk7qjx0/fmQ2Uj8MDQ3h2PHjB90MShged3SUME4S9e6onzeOUhzpuvyGiIiIiIgGwwCtfkNERERERN1gUk9ERERElHCRlrSsffxRv9tBRERERERdilRTz+WQiIiIiIgGF8tviIiIiIgSjkk9EREREVHCMaknIiIiIko4JvVERERERAnHpJ6IiIiIKOGY1BMRERERJRyTeiIiIiKihGNST0RERESUcJHuKDtQzFWoqo6a/aOYUaCkhQNtUpOtIuY1o/6jlCsgN3qA7SGivqiVVRSRG7wYRAOD+wgNrNB8yoCWL6KezYxlsXhR2t82huZTA9DGAbKPSb214RExwa2VVaglQFYUNMdCocXjA2I0i8UCUP/MCWRtf9P+SUKukMXRPUwGnC/oAb1c7LYIkL7gzwtV5xgRkSt0sp3jjIPUG+++3q8OIjEtQ8ir0IZ5zNAgCs+nWsd7E2VVhW42Hon9OArNpyTkCgUAgLGchxbfOydS8nrqaV+IaQWLadgJ40G3hsK5LrzMVahqN0mEibJahBHU0yFMQylMo98XqrWyCrU6AUWZhti3d4mhDeYqiiVAVnixm1xOMmAlJtV+vk9OwrymosyLMzo07IvisSwWlR6ioLkKVa0gxWMjFgNbUy+mFSwW+CUTdUyQkBIAc8cMf65HDdsmIKWYpoYxSjpqY3Lf4xPj4CExmkVuzIReMsKfS5QEpgkTAuQMzxeDJN6een8ZQGBtk3fIszGs0zyM03GZzVYR8/dPQjm7DbXeDm/piLGch/6sgiy0enmJd7jI3w5vG2plFeoTGcqzeqM8RZAPtGfRy27/sG/bbxUxr9Vcn6X95wzT3Jtp93alXNsyCfMfDqMtHbopQB5zb2vf992PfTbK9+2PEXY74Cn30qHmdecJncUAXxuaS8dab4da5DYYqGwKkFv1Th10HAxlQMvrOKnI2FaD2tCIc4upauOz+D6Hd3v5vu8IsbgnTfEMCIx9kb6LVgJKpeyRS/85Rdt0/qb1Z5RSEqBVYUDi6A4dEtaFarrNMdXy+PDFal3Nw4m4zBW6F19SXw+yBU/SOL/sDaKGpkNWCsgJ9klBK8IoZCFBQFopIO080R6S6ZipQ70vQylkIdpt0JYN78mopEIVZCiFaYjmKlRVQ3lMQVpwnRQU10lBVQH3yWOzCBVZLBYkOIG/WJZi2gl9Nc0u0eqYBaTPStB9Jw+jagBjWdfFiQ7kCli0fzaW89C0VUhxJXr2ASvkClBGnc+lQgUP1v4woOXz9r/9SWDzfm0s52Ht1tMQ/YmPlsd84Ou0EeX7booRLna5V2/lNwY0TxuaGtl+O0Rtw1YVBkRMBG2XQYmDoUzoaqs22DaLmN+0SlQkOy5pW1YMaswnUOznB3zfEWJx10ZlyIKK6qaJdP39DFRNAXKuHvWgVVNYLGTt369CVRufIQ7Gch7ajn0ugb1d8sXgxH40BQk6aiYgMQRS0gnTUHLbmNeKmM8j8IK57fHhlHSy/CZWsZXfWEmjezjaSi6xWfUkqFKu8cWJaRkSaqh1WiXQloRc/WRst2HHdPXcwdtLKQgQYGLbROOk4B5OGpUhCyaqm6b37+s7rwQ5I6D2xPMOvbW/UMBiwH+RT0SjKUgwUNlyHrB7Fl2fS0xnPQeQlJIAcxtxfRW1zQpqY1lXm+3tVDUQ15YiN3u/UeTmRNQ0UDUl5FwBV8rIEM0KDBP2RKQCFu1ERMo5+1wHIzeh37eJ8n0DYibX98BtVFuUOIRth4hqOzVAOImgjzE4cTBceBvcvc4iTtZLukwYVRNiRnYlrkHHd4RY3DUBUsr7ftY+6N723u+6+7K0Vuy4mmtc/Fnb0R17/exzDdFh4Jw7cpLVCZDPQ/PnHR0dH9SrmHrqTdR2ADHlSyeEkxBRCemZsINcP0/0drJab92w4Ep8GjOnsbWNGkSInrYIEIdhJ+1tGmmfrHrv5e61px5wTrBq1QBGJatnUZiA7KnG8JcpWH8XF/OJaR/kvl/wSry/hGnIYzp0Tw/mNmqenvz6k2N72/Dv26rXF4b7uQNYSaiWb7TDM4zb9+0w4HEwlK8NngsX9wiCEfhdisNic6xteouQ33dATMuQSjoMcxqiYF1oSGcDego3fX8Xw3sDsGuKTRiusgEHy2voSLFXqPGM+PH4OBAxJfUtEl8zKEl2sSdapPp4IrN61SainSsDT74tTtQu5hPTd6HQC9dFRg/EsQmIJasEB1UD0tmsq31WmQIyChY9pRE9v22d8KwAQD7S68UeFCkjQ1d1GGm7l1U4CRGA3MdlScO/b6unt7pjAqP9Tuzt48e/ClBM26F18jq4cTBUR20I/i7DYm1HsTgSCRNjResCdsxAFTKyrk6PWlmFtukebYh5lRtBgAChw7IBASfZsUGHlJV3ODlUN8cH9Sq28hspJQGbOsr1oUUDmmb4hmi9jJKOmjDRx/pCA3rJhJiSoiXcgoSU4F2hoFbWoJsS5FZ7pbkKfXMAVwwRpiGPGahsGahsSphw9/CbJky4e9qs76oT7sQGAIxl31q1YxMQN4uuoTjaN4KElGBAdw5G+2dtuX8rb4R/33a5RElzxYiA1xkWgZByGGM5j/l8Hmq7FwLspMv9c7TtENqGpvK2hv2Mg852iOMY66wNznepN0YUzVUUSyaks63mQrSIxeYq1Hwe8+pqV2U5UkYGqgaMzQrge23ziekZbbBieSev7i45stvqiZMSJsZM6FrEtttzMVpe3BElnDeORDw+7BJoT4kzdS2+ibKjWSgZFWrLGcxWgNTrk/BgTazoZX3TQN7hdanlpLkgAtJKFtt5dxlBwGoGpn9ljICJfwNASknQtCLEjOJtvzCNbKYC1T0hMifD1LbtJzSvwGFtU9fESXuimrOtxYyCHNTGMJswDUUBVNX1fYOz2veHM1namQAuIG19Gd7ymA5WwPGvdOJMpq1/nxG+bzGtQIE3RjS1YTSL3FgeWv05nU/WdZ9AxIziOv4jbofQNkiYGAM0p7zNbR/joHUBYcC4v4raaOcTi40e2iCmFeSe5JtibfOdHkNisSAhJejQTR361nTnE1gFCSmo0EpS003ApItZSPliI1aPZZEbKzb2Pf8E8ZKK+RJcE/6c48h+HBJyigxd3Xa9RwG55bzrfGA/L2A0yFmsYMC6f4i6E3DTQ38sjXZ8NO7jYB1nzBN6MbS3t7cX9qRPfvfb/WiLV6sZ0e1mSgcsNxa3zlbn6OzukUSUEK7Vfvp6bLddGcJ185eOytz2IS51EIuPxF1z9+HcRNSx0JVnBimHCW+LdUfZTuPh4TJAN58yUHYNp/e/NIeIqEvCNLIZAYYWPKm9e9HjYK1slb8MXOlfR6yyHBzqWG+VYEk5JvRE1F/x3nyqJxIkqJjPR7mhk1m/UcFADtP4hqUYyIkOH6ecqFg2IcUWg6LEQWeFrMEt/YuiXtLV8UhDstTKOkxPGRjRIAnPp+qlegdxrIbmU74VA8f2p1mDanDLb4iIiIiIKJIBKr8hIiIiIqJuMKknIiIiIko4JvVERERERAnHpJ6IiIiIKOGY1BMRERERJVykJS3//u//rt/tICIiIiKiLkVa0pKIiIiIiAYXy2+IiIiIiBKOST0RERERUcIxqSciIiIiSrhIE2WD/NPTf8TTTz8FS/KplaGhIRw7fhx/cOyzB92UQ4PHHRH1A+P14cXzRv8NyvHTdU89dxAKs7e3h6effnrQzThUeNwRUT8wXh9ePG/036AcP10n9dxBKAruJ/Hi9iSifmF8OZz4ve6PQdjOrKknIiIiIko4JvVERERERAnX9URZ6q9aWYVaMu2fBMiKgrRwoE1qkoQ2EtFhYEDLVzFRyEI66KYkUK2soogcFAZocjNXoao6avaPYkbx7SMGtHwRhvPjWBaLFw/fERiay2wVMa/VtwKkXAG50X1tYmR9TOpNlFUV1ZR/J2nNu2El5JIYwLeKmNcQue3Gch7aZovPKshQlGmIfWhmHMS0gsU07MBQOejmHF2+gAMEBeeoWgRxX/Af5KDWkMQYZLVZN92PHfULZmufNDNKR99FraxCrU5EjKH2fn9IkxYxLUPIq9CGk3Dc0v4Kjy+B8T6O886AnFdCc5nRLBYLgBMnBtlA9dTXN6ydGHfH3uiJSDqI4uJKQM1VqGo3J3ATZbVFYiNMQylMo99BrbNELH6DEoPcJ8daWYWqqkDiEvt4YrGxbO+TyfrwA0ZCLidhXlNRTtx+RIPL3fFhQMurmH/SwYVxTOcVYzkPDYfzgrxTrKk/YNLFAhaTOCJBg0uQkBIAc8cMf65HDdsmIKW4Nw4SMZ2DLJiobnb6fR4C5ir0TQFypt/7pIRcoXC4k4LRLHJjJvSSEf5coo5JyCkyxM0itK2DbsvRFW9PvW8oBYCvt803tNxNeUnL2iZf2YCWx7zzb0/PY+9t8A7Rtxhy8rTTfzXramfT7yO+/xMZyrN6ox2ez2FAy+s4qeQAzfms/iE2fzvcbbC20fZZBSfvN7ZV9yUdtK+2dOimAHnM/V3FcOyFCa3PRPOQrd0OeI4pHWped57QWenJoYxB1sVW4yOsQlW3IRdSqNTfzxdD/NvZ8/5OfJCxrTba6x/6tkoD65/S+/pt2xC+HawYKvriXnPPfm2zgtqY3OL795cqBe8rpnvfcm/rgPKBuGuGBy1WSykJ0KowILEjieInSEgJOqo7JjBq7X9t40gUbc4r3tcuYj4f/D49tyFB4kvq7Q0v5ApQRoF6PWvjCVYAHs5iUbHT2+U8rFHliCfVrSLmtRpkpWAFPHMVqpqHlisgN2r1tLQf8u29DY2TkeIZclLhDqIGtPsylEIWov2e2rJhnyycdro/U5QP77NZhIosFgtS/TMXy5KrDSZ0VYWYUbCYFqx2a6uQlGmIrhrVRfcQf77oPRA0FcgVsDjqtFNDeYxDt4PJgJZ3Ipo/KQjZ7/3JTT0J6yChbjr+A44L//HrZpe99FR+c0hjUK2sw4CEXNMENgOSfXway/lGjGnaztZ7zi97Lyx0VYesFJAT7O2uFWHYx7+xnIe2I0MpWG0Kig/t2hC2HcS0DKlURGULkJwEvqzDEGT7u7PaaFRNiKmgrdK8HbFVxLy/TMnUoT1pESfrdbKofw9dV1y1M0ixejQFCTpqJiAxjlOf1J7UAAgR40gbIecV6WIBi2hfftNzGxImtvIbq0cl27p20jRQNSXkXBtdysgQzQqMiKPKRtWAmMk1ApUwDXnMejySnttgn2QysmtnkCBnBNSqhqt3UEKufoIWkD4rATump/ewZ4IMpf457DY88b6D+4pWHBYBcxsmAGxZPTWyK+KLaRkSDFS2vH9f/z5HZciC6e0xpAFilw8ocnNiGLbfj2axWGiUgUm5gv1z9Au45uPff1yYKN/3Hb8xO0wxqFZSMZ/PYz6fty5yAk5A7p514VmhHmOMqgF4erftGLRZ9YwQSrnG92sd/zXUTAAwUNkUIOcaFxlB8aFdG8JJmPBsNyeBl1z7rzVCIQwH7DCmgarpK8uxY5SnTClCnOy7gYvVjOO0H6LHkVbCzyv9b0PSxNZTbz4JiRLmNmqe3kRH5HF11HaA2qaK+ZLvV2NRX6LXNgSfZNxBuGVvX9jv42CfUJ338LTT1StV26kBwoTvU4s4KcAeNmv9FqZrWI0GkDANeUyHvmki7SQCPe/34cwnJrDpHv70v0WbBC3ONrR9QnJiUHipm4CTrl/XJ/jChLGD5t5t4SREVEJ6aJ1kz4QJE4aah+57hvfColUbopEyMkTVLgWxL3bkqFd85jZqECF6ni5AHG70Erbki5MHgrGaDiUrzospETCNiHGktfDzStgLRI1lh8f+rX4jnIQIQO56yMMK2GIHy9PF3wZ3MG20ITjwIvLv42A+MYFhIdKJKvgixJ10BSVH/U/KKB5SRoau6jDS9n7e834fTnhWACC3qUcOPnb21aGIQaFvEJzYBibBLqYJEwJSAgBBgAABqX6vkmLX31a2AGGnAmRyvm3SZp8JvEixLrqCy3XsZ3QQJ/vl4GO192KMKDZbVRiw53PFEEfCzythL7BPsWyAxFZ+I6Xcw7sBay0LElKCAW25+5n3UkpCraSh3LZDzjoRBA6H99wGAVJKQK2kN4axzVUUSyaks61qcg3oJf+wcszMVeibHaxaMpqCBAO6a0May0UYggy5Rc+PU9c7wWVCB5+9n9e/3xiOvTDi2ETIqgfOsdP++LWSmPblMMayXZbie6GjEYPCWdtBd7XRgKYZvrJBL6OkoyZM2AmyhIkxE7q22mPJYJvtAMApCzLuqyiWxIBeenufCRpqFySkBO9KLrWyBr1db3+ncdL1d2o+j3m11+3RRRvijtVbVRjtLu6IumWuQtXc5Ym9x5Hw84pFeFZoKi+0xBXLkiO+nvrRLHJj+fqwsphRkHuiuoY8BKQVBVBV71BKfSWA5pOw9VquyXqjWSzmipj3DaV4V20QkM7JqKquIZv6igZhbQgnphXknuQ9w+ee9xdOQoTe9Hsl7mTY9K8QEjD5sCVr6SlVdZURBGyDWsn3+8Lg3giL3KxkSa9Plut9v/ev+ORMpq2XiQjTsN7CtdIJvGUkYlqBAhWq+/j1t8GJI/XndDBZ94jEoCjbQcl4t3NQOY/hX5VGcdX5Xywgt5x3xRig81Uj2m0Hp60pSFoRxljwBYc4NgGxVIFhTjeV2qSVLLbzrVe8sC4Qe4mTzp9ZIwq6qUPfmu58zf0BitXWfIvDOUGQDoLROhdCeByJ47wC2Mv+VlVXWxrvEU8sS46hvb29vW7+8JPf/TbuthxNLe5A224VkP7foKfDO3Had2FrNcT1zB9+Lv4mHlE87qh3g3SDvvC21Fev6PMNydqtoGElH+j4zr4DFasj3u2c8frwaXneCDl3D1as2AcxbI+DPn5486n9Zq6iXB9KslYEwVjqUF4xEhG149wttl3CIF3MQjJ1FNvXPHWsVl71lFG2LouxSihRL09KIqsES8odzt5JIrLs30RZsgjTEEv5xtr07W52Uh+27fAGPPvEO3Q2YI0jogHlKnMSZChKWJppDZVredfk7xiIaQF6vrE2vb90AHDFuJhvSrXfamUdZkaJvwyUDgETul2q12rVrXqpXsKPg1ZCcxn/DQf3p1ldYfkN9d1BD0cdJjzuiKifGK8PH5439s9BHz9dl98MDQ3F2Q46pLifxIvbk4j6hfHlcOL3uj8GYTt3ndQfO358ID4ADa6hoSEcO378oJtxqPC4I6J+YLw+vHje6L9BOX66Lr8hIiIiIqLBwNVviIiIiIgSjkk9EREREVHCRVrSsvbxR/1uBxERERERdSlSTT2XQyIiIiIiGlwsvyEiIiIiSjgm9URERERECceknoiIiIgo4ZjUExERERElHJN6IiIiIqKEY1JPRERERJRwTOqJiIiIiBKOST0RERERUcJFuqPs4WVAy1cxUchCOuimdKhWVlFEDkpaOOimEFGiJTcO9h+3DR1i5ipUVUfN/lHMKL6cwoCWL8JwfhzLYvEij4TOmSirKnTT/lGQoSjTEF3PqJVVqKX6EyArCrpJ7w5ZUu/bAW1SroDcaPBzzYwSc7D2tqH5IImHmJYh5FVow0GfjY6UrSLmNe9e3/1+1yKI+4J/8DFFyRMcB70nGFvAieggedsoIdeXxFuCnNGhqqsD9dmJ4hOeQLaN977zT79ynmQTkFYKSMOOW9XmZ4hpBYtp2OfaStfvdMiSekuUhMNYLsIYy2Ix9p1PQq5QgHNlFvDdxfc+OQnzmopyl1d0dJi4khpzFarazQWfibJqHxf+3hhhGkphGk4S2C9WwJtIeAJlb6MDvfCJ1oa2cXDAkni/+klwq4h5rZ/vk4NcVaEuC+ylJHKzE3p3zlUrF1E2s/uakxjLeWg42FGEQWgDcFRr6s1V6JsC5EzCA/RoFrkxE3rJPzZBR5ogISUA5o4Z/lyPGrZNQEol/LigaA5LHOw7AemcDHFTR7nTQ4ro0DKgaQbEjOLpOBDT+5vQk1d8PfVbRczfPwnl7DZUZyimqaendV1Ry6sc53Vj7DGqbVZQG5Obd7ytIua1mm8oym7zsKtt/nKHjurMAnrQ7J4m9/CxsZyHtun8TeuhZSklAVoVBiTWfJJlS4duCpDH3Dt4eE1fz0LrM9F87NjtgKeUQoea150ndFxb6D12/O3wl+i5jy1rG22fVXDyfmNbNY38tfgMov+1tTzmnX+7YoSxnIf+rIIstPpnbrTRHuFLudpsD8emguKSK8m02hmtDUCbOLgPrNIZ0RfXGqVA7m3R+Iyd7QvNoz6ttm3IPgvYF8o6qpsm0sxYiIAtK+/ItT0e2h/DtbIK9YkM5Vm9Ef/9+ZTvGHXHbG+sL2I+3/wc5z0WU9VG3Ha9R6Q40fRejVgRpQ37Kd7yG1OHel+GUsjWT3DFsuQN0MNZLCqNk5uqAooyDeFZAXjS/JK1nRownIox+TBhVE2IqYBXHJUhC6o3cJsGqqYAOVdPt6FVU1gsZO3fr0JVi9C24htqN5bz0HZkKAVrJ6uVVaj5YvAOMpqCBB01E5B4rjnCDGh5J5r4k5/2x57oT1LriWAHSZQdeIVcAcqo0x4VKlyBsX7RXGh+TbuUotfyG/+x4/ttPWl0yk2Cji1DU4FcAYuj9u+1Igx3aVOrz1AvvQsvfamVVKiC3U5zFaqqoTwWNWFt/j47b0ObOLgPxLQMqVREZQuQ6p0b3iShVtat78HeJsZyHpq2Cimui9Eo+2ydACklQH9SA8BAS1TbqQFtj8SAOLVVxLx14mnEus0iVGSxWJAC8ikDmucY9ZIuFrCICKUvm0XMb1qxUbJjYyc5W7vzSuQ27JOYy28k5OoBV8LEGFB7Yl9fmQaqpoSc6wNLGRmiWYFhAuKwCOyYqME6kc4vd19SYmh5zOed/1TfkKlVYiAMBwVmK3DXqkb9qrC5N8v7GbovdWjZelQ2Bci5xs4jpmVIMFDZavU3JrY5LHzEWQFrUZGbw2zIsYfRLBYLBSzaiauUK9g/d9ArullBbSzrCpIS5Iz7WDJRvm9AzOT61zPslJPkWiR9dtIouxoQdGy5h5PFsQmIqKHmOb5MVDd7PODcIyWCAKGTY3hLh+77PjvXLg7aTB1q3hVLe4jJzazzg1FtvKZRNSBm5PrFlX8YX0pJgLmNuEJd+D4bwD5HEVEIp0PUXd43KkMWfPFTkKE4saxFPuWOE91x95qLONlJzhZ2Xhkw+zdR1txGzdOb6LCjtnASorkNEyZqVUCEdQLGExPis51tyl5W5rB6kHQY5jREwerNks56T57+YRig/fVqR0wTJkwYah6671csr6FQwjTkMR26Z7Qp5NiLYAT80wAABnBJREFUgfnEtHpDWr5FhCSy50ZsowYRYou3qO3UAGHC96mtAF/dMYEoMUOYhqIAqqpivmQ91FW8GRZcMcPpXY8m+HP0QZ8nykoZGaLqlA5anRmpjOtTNQ27A3FGwfB9lohaEYdDIkNgPBYgDjudvVEONCsZ1/KN47Sr1XWEk653a6xEE0nIeWXQ7F9SL5yECEBuWWMkQMC2dXU3LCP7rA59y8TJHUBIxbk13SfxoNeVMDFWtJKiMQNVyMi6Tti1sgpts7kON7ZVbgQBAgRf/WzoH+FkQnY46j8pI0NXdRhpex8NPfZ6JzwrAJDbDD2GHXdxNOIkRFRalqKJw2K9p7dxOnJfbETsuamvBAS7pGh/V6AK/hwdv0r/v48wdp16ZQuQUIUxJiNXb4o17A5XqVTcq9yE77MBPBdjREeYcBIidG8JXdPv/fHYRG0HHZb9uTo9ul7ZrQch55VBs3+r3wgSUoIBreUQroiTQg2VUgVCSoI4NgGzaiD+hLW5xMZPyshA1YCxWQFSkieIm09Mz1Vfrax5JquF8w39mKuNicXWu2NizISurUYb5t2qwkjQVSTtA/tY0526s9Bjr3fi2ATEzSK0liVi9nFX0tquIGIlrHZZUAvGslUOovpfSJCQEtocO6MpSHBtF9hLOgoy5G5PEPYFk5d1jHc3ZOzuyQKc5NbzeezP0f77DGtDeByMwvkuWn/v7QhIn5VgVA0YVcO76pJpwoR7ZMdaaaMT7osfq63eicXh+6ybPQehw1FjokNLmIY8Zs1Bcodia0lLNOKxa3U+K1/ylkB29p5CYP++8KwAbFab7lEURVicCD2vxNCGOO3jOvUC0ta4tXe4sz7EK0AcNqFvSshdBAAJqR3Vqh2NOWEVxyYglip2iU1QUyWkoEIrScgVvE+QLmYh5YuN1TnGssiNFRulMv5JhyV7mL4+29o6kemaM3wvIafI0NVt13sUkFvOu1YAsZ8X0NNqVA1gjHc7JDdnH3MmX4Yde+GabkZkT6atD4XWy1Jcq63AO1QqphUoUKG6S8v8bRjNIjeWh1Z/TicrnjQ+p/vYabTBOtbcpTMdl5gE3OhLyvknzVpLIFZVV2lHBytkWWUpzt8KkJUsoDbHAveQtNOORu9VeBtC42CUtqYkYNOAcX8VtdEuSnVGU5C0IjRB9k6EE6aRzVSguidt52SYmhMnm1f/scrLXPuLvfCBU3YmZhTkoLr2vfB9ts6uD06NsfeEyCFdLEApe2O6mFGgCIAVj7PYzvewIkxACZ6YUZomzTr3kmiUmHbwPmFxIvS8EkMbYjS0t7e3F/akT3732/1oy76qz2Ye4JurhApYCpOIKKre46C9hOahvn188BJ3RIkXuFyu2yDcSO9wCV3hLfQ7ae9o3nwKdo+7qaOY2LuJWMPRUo4JPRF1p9c4WCvrMHC4b1hWK2vQISPLhJ6IBtw+lt8MGmcI2zWhMEFqZd26SQuvnomoa93GQecmV0KLNfsPCwN6SUQu8L4HRIeBCd0un2m1sozhlMEd6hG5fvLf/LH5Gd4S1+4D6pEtvyEiIiIiOiyObPkNEREREdFhwaSeiIiIiCjhmNQTERERESUck3oiIiIiooRjUk9ERERElHCRlrT8+7//u363g4iIiIiIuhRpSUsiIiIiIhpcLL8hIiIiIko4JvVERERERAnHpJ6IiIiIKOGY1BMRERERJRyTeiIiIiKihGNST0RERESUcEzqiYiIiIgSjkk9EREREVHCMaknIiIiIko4JvVERERERAnHpJ6IiIiIKOGY1BMRERERJRyTeiIiIiKihGNST0RERESUcEzqiYiIiIgSjkk9EREREVHCMaknIiIiIkq47pP6yg1MTt7Ahv3jxq3TmLxV/wk3J0/jZqXn9hGRH489IiLqwO69OUzOrWDX+gkrc6fx6j3rJ+ys4NXJOazsHGADKRbsqSciIiIiSrihvb29vYNuBBERERERdY899URERERECceknoiIiIgo4ZjUExERERElHJN6IiIiIqKEY1JPRERERJRwTOqJiIiIiBKOST0RERERUcIdi/Kk2scf9bsdRERERETUJd58ioiIiIgo4Vh+Q0RERESUcEzqiYiIiIgSjkk9EREREVHCMaknIiIiIko4JvVERERERAnHpJ6IiIiIKOGY1BMRERERJRyTeiIiIiKihGNST0RERESUcP8/SxB8zwrT4UkAAAAASUVORK5CYII=;movable=0;resizable=0;rotatable=0;deletable=0;editable=0;connectable=0;" parent="1" vertex="1">
                    <mxGeometry x="30" y="30" width="757" height="251" as="geometry"/>
                </mxCell>
                <mxCell id="5" value="使用语法" style="rounded=1;whiteSpace=wrap;html=1;movable=0;resizable=0;rotatable=0;deletable=0;editable=0;connectable=0;" vertex="1" parent="1">
                    <mxGeometry x="200" y="300" width="120" height="60" as="geometry"/>
                </mxCell>
                <mxCell id="7" value="" style="endArrow=classic;html=1;exitX=0.5;exitY=1;exitDx=0;exitDy=0;movable=0;resizable=0;rotatable=0;deletable=0;editable=0;connectable=0;" edge="1" parent="1" source="5">
                    <mxGeometry width="50" height="50" relative="1" as="geometry">
                        <mxPoint x="400" y="280" as="sourcePoint"/>
                        <mxPoint x="260" y="410" as="targetPoint"/>
                    </mxGeometry>
                </mxCell>
                <mxCell id="8" value="" style="whiteSpace=wrap;html=1;aspect=fixed;movable=0;resizable=0;rotatable=0;deletable=0;editable=0;connectable=0;" vertex="1" parent="1">
                    <mxGeometry x="185" y="410" width="150" height="150" as="geometry"/>
                </mxCell>
                <mxCell id="9" value="" style="rounded=0;whiteSpace=wrap;html=1;movable=0;resizable=0;rotatable=0;deletable=0;editable=0;connectable=0;" vertex="1" parent="1">
                    <mxGeometry x="210" y="430" width="100" height="40" as="geometry"/>
                </mxCell>
                <mxCell id="4" value="调用基本方法" style="text;html=1;align=center;verticalAlign=middle;resizable=0;points=[];autosize=1;strokeColor=none;fillColor=none;movable=0;rotatable=0;deletable=0;editable=0;connectable=0;" vertex="1" parent="1">
                    <mxGeometry x="210" y="435" width="100" height="30" as="geometry"/>
                </mxCell>
                <mxCell id="10" value="封装" style="text;html=1;align=center;verticalAlign=middle;resizable=0;points=[];autosize=1;strokeColor=none;fillColor=none;movable=0;rotatable=0;deletable=0;editable=0;connectable=0;" vertex="1" parent="1">
                    <mxGeometry x="135" y="410" width="50" height="30" as="geometry"/>
                </mxCell>
            </root>
        </mxGraphModel>
    </diagram>
</mxfile>